<?xml version="1.0" encoding="UTF-8" standalone="no"?>
<svg
   xmlns:dc="http://purl.org/dc/elements/1.1/"
   xmlns:cc="http://creativecommons.org/ns#"
   xmlns:rdf="http://www.w3.org/1999/02/22-rdf-syntax-ns#"
   xmlns:svg="http://www.w3.org/2000/svg"
   xmlns="http://www.w3.org/2000/svg"
   id="svg14"
   version="1.1"
   width="512pt"
   viewBox="0 -52 512.00001 512"
   height="512pt"
   fill="#F8F8FB">
  <metadata
     id="metadata20">
    <rdf:RDF>
      <cc:Work
         rdf:about="">
        <dc:format>image/svg+xml</dc:format>
        <dc:type
           rdf:resource="http://purl.org/dc/dcmitype/StillImage" />
      </cc:Work>
    </rdf:RDF>
  </metadata>
  <defs
     id="defs18" />
  <path
     id="path2"
     d="m0 113.292969h113.292969v-113.292969h-113.292969zm30.003906-83.289063h53.289063v53.289063h-53.289063zm0 0" />
  <path
     id="path4"
     d="m149.296875 0v113.292969h362.703125v-113.292969zm332.699219 83.292969h-302.695313v-53.289063h302.695313zm0 0" />
  <path
     id="path6"
     d="m0 260.300781h113.292969v-113.292969h-113.292969zm30.003906-83.292969h53.289063v53.289063h-53.289063zm0 0" />
  <path
     id="path8"
     d="m149.296875 260.300781h362.703125v-113.292969h-362.703125zm30.003906-83.292969h302.695313v53.289063h-302.695313zm0 0" />
  <path
     id="path10"
     d="m0 407.308594h113.292969v-113.296875h-113.292969zm30.003906-83.292969h53.289063v53.289063h-53.289063zm0 0" />
  <path
     id="path12"
     d="m149.296875 407.308594h362.703125v-113.296875h-362.703125zm30.003906-83.292969h302.695313v53.289063h-302.695313zm0 0" />
</svg>
